# xmcd
#
# Track frame offsets:
#	150
#	12250
#	28210
#	46087
#	58442
#	77160
#	97970
#	112640
#	130460
#	143342
#	152092
#	173807
#	183610
#	203495
#
# Disc length: 2983 seconds
#
# Revision: 9
# Processed by: cddbd v1.5.2PL0 Copyright (c) Steve Scherf et al.
# Submitted via: audiograbber 1.83.01
#
DISCID=b10ba50e
DTITLE=Goo Goo Dolls, The - Dizzy up the girl
DYEAR=1999
DGENRE=Rock
TTITLE0=Dizzy
TTITLE1=Slide
TTITLE2=Broadway
TTITLE3=January friend
TTITLE4=Black balloon
TTITLE5=Bullet proof
TTITLE6=Amigone
TTITLE7=All eyes on me
TTITLE8=Full forever
TTITLE9=Acoustic #3
TTITLE10=Iris
TTITLE11=Extra pale
TTITLE12=Hate this place
TTITLE13=Name
EXTD=
EXTT0=
EXTT1=
EXTT2=
EXTT3=
EXTT4=
EXTT5=
EXTT6=
EXTT7=
EXTT8=
EXTT9=
EXTT10=
EXTT11=
EXTT12=
EXTT13=
PLAYORDER=
